<svg width="32" height="32" viewBox="0 0 32 32" fill="none" xmlns="http://www.w3.org/2000/svg">
<rect width="32" height="32" fill="#C7D3C9"/>
<path d="M22.0957 24.875C20.8207 24.875 20.2957 24.275 19.5957 23.275L13.1207 14.05L17.3707 9.225C18.2457 8.225 18.7707 7.625 20.0457 7.625H20.3207V7.5H16.5207V7.625H16.7957C18.0457 7.625 17.9957 8.25 17.1957 9.175L8.3457 19.225V9.225C8.3457 7.95 8.3707 7.625 9.6207 7.625H9.9207V7.5H6.0957V7.625H6.3707C7.6457 7.625 7.6457 7.95 7.6457 9.225V23.25C7.6457 24.525 7.6457 24.875 6.3707 24.875H6.0957V25H9.9207V24.875H9.6207C8.3707 24.875 8.3457 24.525 8.3457 23.25V19.475L12.6707 14.55L18.7957 23.25C19.4707 24.225 19.5707 24.875 18.3207 24.875H18.0207V25H22.3707V24.875H22.0957Z" fill="black"/>
<path d="M24.7029 23.55C24.2529 23.55 23.8779 23.9 23.8779 24.35C23.8779 24.8 24.2529 25.15 24.7029 25.15C25.1779 25.15 25.5279 24.8 25.5279 24.35C25.5279 23.9 25.1779 23.55 24.7029 23.55Z" fill="black"/>
</svg>
