<svg width="16" height="16" viewBox="0 0 16 16" fill="none" xmlns="http://www.w3.org/2000/svg">
<path d="M11.5845 0H4.41533C1.98072 0 0 1.98081 0 4.41542V11.5846C0 14.0193 1.98072 16 4.41533 16H11.5845C14.0193 16 16 14.0192 16 11.5846V4.41542C16.0001 1.98081 14.0193 0 11.5845 0ZM14.5805 11.5846C14.5805 13.2365 13.2365 14.5804 11.5846 14.5804H4.41533C2.76348 14.5805 1.4196 13.2365 1.4196 11.5846V4.41542C1.4196 2.76358 2.76348 1.4196 4.41533 1.4196H11.5845C13.2364 1.4196 14.5804 2.76358 14.5804 4.41542V11.5846H14.5805Z" fill="#262626"/>
<path d="M8.0017 3.87775C5.72836 3.87775 3.87891 5.7272 3.87891 8.00054C3.87891 10.2738 5.72836 12.1231 8.0017 12.1231C10.275 12.1231 12.1245 10.2738 12.1245 8.00054C12.1245 5.7272 10.275 3.87775 8.0017 3.87775ZM8.0017 10.7035C6.51122 10.7035 5.2985 9.49093 5.2985 8.00045C5.2985 6.50987 6.51112 5.29725 8.0017 5.29725C9.49228 5.29725 10.7049 6.50987 10.7049 8.00045C10.7049 9.49093 9.49218 10.7035 8.0017 10.7035Z" fill="#262626"/>
<path d="M12.2964 2.67371C12.0229 2.67371 11.7542 2.78443 11.5611 2.97845C11.367 3.17151 11.2554 3.44029 11.2554 3.71474C11.2554 3.98835 11.367 4.25703 11.5611 4.45104C11.7541 4.64411 12.0229 4.75578 12.2964 4.75578C12.5709 4.75578 12.8387 4.64411 13.0327 4.45104C13.2267 4.25703 13.3374 3.98825 13.3374 3.71474C13.3374 3.44029 13.2267 3.17151 13.0327 2.97845C12.8396 2.78443 12.5709 2.67371 12.2964 2.67371Z" fill="#262626"/>
</svg>
