<svg width="1033" height="164" fill="none" xmlns="http://www.w3.org/2000/svg"><path d="M116.48 126.49c-9.282 0-13.104-4.368-18.2-11.648L51.142 47.684l30.94-35.126C88.452 5.278 92.274.91 101.556.91h2.002V0H75.894v.91h2.002c9.1 0 8.736 4.55 2.912 11.284L16.38 85.358v-72.8c0-9.282.182-11.648 9.282-11.648h2.184V0H0v.91h2.002c9.282 0 9.282 2.366 9.282 11.648V114.66c0 9.282 0 11.83-9.282 11.83H0v.91h27.846v-.91h-2.184c-9.1 0-9.282-2.548-9.282-11.83V87.178l31.486-35.854 44.59 63.336c4.914 7.098 5.642 11.83-3.458 11.83h-2.184v.91h31.668v-.91h-2.002zM210.759 118.482c-4.004 5.46-10.01 8.554-14.196 8.19-3.822-.364-6.188-2.184-6.188-11.466v-43.68c0-23.296-10.374-33.488-31.304-33.488-8.19 0-18.928 3.822-26.39 8.918-2.366 1.456-3.64 3.458-2.548 5.096 1.274 2.002 3.822 1.456 6.734-1.274 6.006-5.642 12.558-11.83 22.204-11.83 12.012 0 26.208 4.732 26.208 26.208-2.002 4.004-11.83 11.102-28.756 14.014-20.566 3.64-37.674 9.1-36.946 27.664.728 15.288 16.926 22.386 31.486 21.658 20.02-.91 32.396-20.384 34.216-30.576v16.198c0 10.01 2.912 14.378 10.01 14.378 6.734 0 12.922-5.096 16.016-9.464l-.546-.546zm-25.48-28.21c0 16.198-13.104 33.306-29.302 35.854-15.288 2.366-29.848-4.55-30.758-20.02-.91-17.108 18.018-23.114 29.302-25.298 19.292-3.822 27.118-8.918 30.758-13.468v22.932zM252.673 78.988c-19.292-5.824-27.3-11.102-26.572-22.568.91-12.74 13.65-17.472 23.478-17.29 20.384.364 30.576 10.92 30.576 28.028v3.458h.728V38.038h-.728v2.912c0 2.548-.182 6.006-2.548 6.006-3.458 0-12.194-9.282-28.21-8.918-10.374 0-23.66 4.732-26.572 18.2-2.548 12.194 3.458 21.112 27.482 27.664 21.658 5.824 32.76 10.92 30.576 24.934-1.82 12.376-13.286 18.564-29.12 18.382-13.104-.182-34.398-6.916-34.398-26.026v-5.278h-.728v34.398h.728v-2.184c0-3.822.182-8.372 2.912-8.918 4.732-.728 13.832 9.282 32.76 9.282 18.928 0 30.94-10.192 31.668-24.752.546-13.286-8.554-17.836-32.032-24.752zM406.16 39.312v.91h1.638c8.918 0 9.646 2.184 6.916 9.646l-27.3 69.888-31.304-70.252c-3.094-6.916-2.184-9.282 6.37-9.282h1.82v-.91h-27.482v.91h2.184c6.734 0 9.1 3.458 12.74 11.648l7.826 17.654-21.294 50.596-32.578-70.616c-3.094-7.098-2.002-9.282 6.552-9.282h1.82v-.91h-27.482v.91h2.002c6.916 0 9.1 3.458 12.922 11.648l34.58 75.53h.546l23.66-56.056L385.23 127.4h.728l29.484-75.712c3.276-8.554 6.006-11.466 12.74-11.466h2.002v-.91H406.16zM477.095 125.034c-21.294-.546-41.496-13.104-43.862-39.494-.546-5.278-.182-10.192.91-14.56h74.802c0-19.838-15.288-32.942-34.398-32.942-25.844 0-46.774 22.386-46.046 49.504.546 24.934 20.748 40.95 45.136 40.95 30.576 0 46.228-26.026 52.052-36.218l-.728-.364c-4.914 8.736-19.656 33.67-47.866 33.124zm-5.642-85.722c21.112-.364 32.214 14.924 31.668 30.394h-68.614c4.914-18.2 21.112-30.03 36.946-30.394z" fill="#000"/><path d="M619.083 126.49c-9.282 0-9.282-2.548-9.282-11.83V72.254c0-22.204-15.652-34.216-34.944-34.216-17.108 0-30.394 13.286-34.58 26.208V39.312h-16.38v.91h2.002c9.282 0 9.282 2.366 9.282 11.648v62.79c0 9.282 0 11.83-9.282 11.83h-2.002v.91h27.846v-.91h-2.002c-9.282 0-9.464-2.548-9.464-11.83V71.89c0-14.196 14.378-32.032 32.396-32.214 17.654-.182 31.85 11.102 31.85 30.394v44.59c0 9.282 0 11.83-9.282 11.83h-2.002v.91h27.846v-.91h-2.002zM632.976 68.432v1.456h62.062v-1.456h-62.062zM849.89 0v.728h1.638c8.736 0 9.646 2.366 6.734 9.828l-42.406 109.382-29.12-68.978 14.924-38.402c3.458-8.736 6.006-11.83 12.74-11.83h2.002V0H792.56v.728h1.638c8.918 0 9.646 2.366 6.734 9.828L786.008 49.14 769.81 10.556c-3.276-7.462-2.548-9.828 6.37-9.828h1.638V0H750.7v.728h2.002c6.734 0 9.282 3.64 12.74 11.83l18.2 42.952-25.116 64.428L712.48 10.556c-3.094-7.462-2.548-9.828 6.37-9.828h1.638V0H693.37v.728h2.002c6.734 0 9.282 3.64 12.74 11.83L756.524 127.4h.728l27.118-70.07 29.484 70.07h.546l44.59-114.842c3.458-8.736 6.006-11.83 12.74-11.83h2.002V0H849.89zM899.7 126.49c-9.282 0-9.282-2.548-9.282-11.83V39.312h-16.562v.91h2.002c9.282 0 9.282 2.366 9.282 11.648v62.79c0 9.282 0 11.83-9.282 11.83h-2.002v.91h27.846v-.91H899.7zM886.778 18.2c2.73 0 4.914-2.366 4.914-5.096s-2.184-5.096-4.914-5.096c-2.912 0-5.096 2.366-5.096 5.096s2.184 5.096 5.096 5.096zM933.821 126.49c-9.282 0-9.282-2.548-9.282-11.83V0h-16.38v.91h2.002c9.282 0 9.282 2.366 9.282 11.648V114.66c0 9.282 0 11.83-9.282 11.83h-2.002v.91h27.664v-.91h-2.002zM1029.28 126.49c-7.09 0-11.46-5.278-16.01-11.83l-29.668-43.134 20.388-19.656c7.64-7.28 11.83-11.648 18.56-11.648h2v-.91h-23.84v.91h1.64c8.92 0 7.1 4.914 2 9.646l-45.864 44.226V0h-16.38v.91h2.002c9.282 0 9.282 2.366 9.282 11.648V114.66c0 9.282 0 11.83-9.282 11.83h-2.002v.91h27.846v-.91h-2.184c-9.1 0-9.282-2.548-9.282-11.83V95.732l21.112-20.384c2.184 3.458 27.842 41.314 30.392 44.954 2.55 3.822 5.64 7.098 10.74 7.098h11.28v-.91h-2.73z" fill="#000"/><path d="M936 160h6v3.5h-6V160z" fill="#C7D3C9"/></svg>