<svg width="807" height="165" fill="none" xmlns="http://www.w3.org/2000/svg"><path d="M116.85 127.09c-9.282 0-13.104-4.368-18.2-11.648L51.512 48.284l30.94-35.126c6.37-7.28 10.192-11.648 19.474-11.648h2.002V.6H76.264v.91h2.002c9.1 0 8.736 4.55 2.912 11.284L16.75 85.958v-72.8c0-9.282.182-11.648 9.282-11.648h2.184V.6H.37v.91h2.002c9.282 0 9.282 2.366 9.282 11.648V115.26c0 9.282 0 11.83-9.282 11.83H.37v.91h27.846v-.91h-2.184c-9.1 0-9.282-2.548-9.282-11.83V87.778l31.486-35.854 44.59 63.336c4.914 7.098 5.642 11.83-3.458 11.83h-2.184v.91h31.668v-.91h-2.002zM211.129 119.082c-4.004 5.46-10.01 8.554-14.196 8.19-3.822-.364-6.188-2.184-6.188-11.466v-43.68c0-23.296-10.374-33.488-31.304-33.488-8.19 0-18.928 3.822-26.39 8.918-2.366 1.456-3.64 3.458-2.548 5.096 1.274 2.002 3.822 1.456 6.734-1.274 6.006-5.642 12.558-11.83 22.204-11.83 12.012 0 26.208 4.732 26.208 26.208-2.002 4.004-11.83 11.102-28.756 14.014-20.566 3.64-37.674 9.1-36.946 27.664.728 15.288 16.926 22.386 31.486 21.658 20.02-.91 32.396-20.384 34.216-30.576v16.198c0 10.01 2.912 14.378 10.01 14.378 6.734 0 12.922-5.096 16.016-9.464l-.546-.546zm-25.48-28.21c0 16.198-13.104 33.306-29.302 35.854-15.288 2.366-29.848-4.55-30.758-20.02-.91-17.108 18.018-23.114 29.302-25.298 19.292-3.822 27.118-8.918 30.758-13.468v22.932zM265.911 113.804c-4.004 4.368-11.284 12.922-22.204 12.922-8.19 0-15.834-3.822-15.834-21.294V41.004h30.758v-1.092h-30.758V12.248h-.728c-1.274 16.744-8.008 27.664-18.2 27.664v1.092h13.832v61.334c0 18.928 5.46 26.754 19.838 26.754 11.284 0 20.748-11.284 23.842-14.924l-.546-.364zM364.158 119.082c-4.004 5.46-10.01 8.554-14.196 8.19-3.822-.364-6.188-2.184-6.188-11.466v-43.68c0-23.296-10.374-33.488-31.304-33.488-8.19 0-18.928 3.822-26.39 8.918-2.366 1.456-3.64 3.458-2.548 5.096 1.274 2.002 3.822 1.456 6.734-1.274 6.006-5.642 12.558-11.83 22.204-11.83 12.012 0 26.208 4.732 26.208 26.208-2.002 4.004-11.83 11.102-28.756 14.014-20.566 3.64-37.674 9.1-36.946 27.664.728 15.288 16.926 22.386 31.486 21.658 20.02-.91 32.396-20.384 34.216-30.576v16.198c0 10.01 2.912 14.378 10.01 14.378 6.734 0 12.922-5.096 16.016-9.464l-.546-.546zm-25.48-28.21c0 16.198-13.104 33.306-29.302 35.854-15.288 2.366-29.848-4.55-30.758-20.02-.91-17.108 18.018-23.114 29.302-25.298 19.292-3.822 27.118-8.918 30.758-13.468v22.932zM424.679 39.184c-13.286-1.638-24.388 1.092-31.122 7.826-5.46 5.46-8.918 13.468-10.556 20.748V39.912h-16.562v.91h2.002c9.282 0 9.464 2.366 9.464 11.648v62.79c0 9.282-.182 11.83-9.464 11.83h-2.002v.91h36.218v-.91h-10.374c-9.282 0-9.282-2.548-9.282-11.83V76.312c0-8.554 4.55-21.658 11.466-28.21 7.28-6.734 16.926-8.554 27.482-3.64 4.368 2.002 6.916 1.82 7.644-.364.91-2.548-.728-4.368-4.914-4.914zM507.269 97.97v14.014c0 9.282-1.274 14.378-11.102 14.378h-53.508l62.426-84.994v-1.456h-66.43V69.76h1.274V55.746c0-9.282 1.274-14.378 11.102-14.378h48.594l-62.426 84.994V128h71.344V97.97h-1.274zM583.126 39.912v.91h1.82c8.554 0 9.646 2.184 6.734 9.1l-30.03 70.98-30.212-70.798c-3.094-7.098-2.184-9.282 6.552-9.282h1.638v-.91h-27.3v.91h2.002c6.734 0 9.282 3.458 12.74 11.648l31.85 74.438c-14.924 32.396-23.66 34.398-41.678 31.85-4.368-.546-6.552-.364-6.734 1.82-.364 2.184 1.092 3.276 5.278 3.64 14.742 1.638 28.756-2.002 44.226-36.218.546-1.274 31.85-75.53 31.85-75.53 3.822-8.736 6.188-11.648 12.922-11.648h2.002v-.91h-23.66zM707.432 127.09c-9.282 0-9.282-2.548-9.282-11.83V72.854c0-22.204-15.652-34.216-34.944-34.216-17.108 0-30.394 13.286-34.58 26.208V39.912h-16.38v.91h2.002c9.282 0 9.282 2.366 9.282 11.648v62.79c0 9.282 0 11.83-9.282 11.83h-2.002v.91h27.846v-.91h-2.002c-9.282 0-9.464-2.548-9.464-11.83V72.49c0-14.196 14.378-32.032 32.396-32.214 17.654-.182 31.85 11.102 31.85 30.394v44.59c0 9.282 0 11.83-9.282 11.83h-2.002v.91h27.846v-.91h-2.002zM806.361 119.082c-4.004 5.46-10.01 8.554-14.196 8.19-3.822-.364-6.188-2.184-6.188-11.466v-43.68c0-23.296-10.374-33.488-31.304-33.488-8.19 0-18.928 3.822-26.39 8.918-2.366 1.456-3.64 3.458-2.548 5.096 1.274 2.002 3.822 1.456 6.734-1.274 6.006-5.642 12.558-11.83 22.204-11.83 12.012 0 26.208 4.732 26.208 26.208-2.002 4.004-11.83 11.102-28.756 14.014-20.566 3.64-37.674 9.1-36.946 27.664.728 15.288 16.926 22.386 31.486 21.658 20.02-.91 32.396-20.384 34.216-30.576v16.198c0 10.01 2.912 14.378 10.01 14.378 6.734 0 12.922-5.096 16.016-9.464l-.546-.546zm-25.48-28.21c0 16.198-13.104 33.306-29.302 35.854-15.288 2.366-29.848-4.55-30.758-20.02-.91-17.108 18.018-23.114 29.302-25.298 19.292-3.822 27.118-8.918 30.758-13.468v22.932z" fill="#000"/></svg>