<svg width="35" height="35" viewBox="0 0 35 35" fill="none" xmlns="http://www.w3.org/2000/svg">
<path fill-rule="evenodd" clip-rule="evenodd" d="M33 17C33 25.8366 25.8366 33 17 33C8.16344 33 1 25.8366 1 17C1 8.16344 8.16344 1 17 1C25.8366 1 33 8.16344 33 17ZM34 17C34 26.3888 26.3888 34 17 34C7.61116 34 0 26.3888 0 17C0 7.61116 7.61116 0 17 0C26.3888 0 34 7.61116 34 17ZM15 22.1962L22.5 17.866C23.1667 17.4811 23.1667 16.5189 22.5 16.134L15 11.8038C14.3333 11.4189 13.5 11.9001 13.5 12.6699L13.5 21.3301C13.5 22.0999 14.3333 22.5811 15 22.1962Z" fill="#748A77"/>
</svg>
