<svg width="23" height="14" viewBox="0 0 23 14" fill="none" xmlns="http://www.w3.org/2000/svg">
<path d="M18.8123 6.21633C18.5704 6.21633 18.3326 6.24215 18.1043 6.29106C17.7986 3.20251 15.1856 0.781128 12.0183 0.781128C11.6432 0.781128 11.3389 1.0855 11.3389 1.46053V12.3309C11.3389 12.706 11.6432 13.0103 12.0183 13.0103H18.8123C20.6861 13.0103 22.2093 11.4871 22.2093 9.61333C22.2093 7.7409 20.6861 6.21633 18.8123 6.21633Z" fill="#212121"/>
<path d="M9.30342 2.14001C8.92839 2.14001 8.62402 2.44439 8.62402 2.81941V12.331C8.62402 12.706 8.92839 13.0104 9.30342 13.0104C9.67845 13.0104 9.98282 12.706 9.98282 12.331V2.81941C9.98282 2.44439 9.67845 2.14001 9.30342 2.14001Z" fill="#212121"/>
<path d="M6.57979 4.85767C6.20476 4.85767 5.90039 5.16204 5.90039 5.53707V12.3311C5.90039 12.7061 6.20476 13.0105 6.57979 13.0105C6.95482 13.0105 7.25919 12.7061 7.25919 12.3311V5.53707C7.25919 5.16204 6.95482 4.85767 6.57979 4.85767Z" fill="#212121"/>
<path d="M3.86202 4.85767C3.48699 4.85767 3.18262 5.16204 3.18262 5.53707V12.3311C3.18262 12.7061 3.48699 13.0105 3.86202 13.0105C4.23705 13.0105 4.54142 12.7061 4.54142 12.3311V5.53707C4.54142 5.16204 4.23705 4.85767 3.86202 4.85767Z" fill="#212121"/>
<path d="M1.14717 6.89587C0.772145 6.89587 0.467773 7.20025 0.467773 7.57527V11.6517C0.467773 12.0267 0.772145 12.3311 1.14717 12.3311C1.5222 12.3311 1.82657 12.0267 1.82657 11.6517V7.57527C1.82657 7.20025 1.5222 6.89587 1.14717 6.89587Z" fill="#212121"/>
</svg>
