<svg width="20" height="16" viewBox="0 0 20 16" fill="none" xmlns="http://www.w3.org/2000/svg">
<path d="M19.1124 1.84651C18.8051 1.98268 18.4893 2.0976 18.1666 2.1909C18.5487 1.75908 18.84 1.25097 19.0178 0.694956C19.0577 0.570325 19.0163 0.433906 18.9138 0.352395C18.8115 0.270821 18.6692 0.26105 18.5565 0.327809C17.8711 0.734041 17.1316 1.02598 16.3563 1.19669C15.5753 0.434032 14.5145 0 13.4179 0C11.1031 0 9.2198 1.88194 9.2198 4.19514C9.2198 4.37733 9.23134 4.55851 9.25418 4.73716C6.38173 4.48513 3.71127 3.07422 1.87747 0.826269C1.81211 0.746145 1.71143 0.702962 1.60836 0.71122C1.50522 0.71929 1.41255 0.777413 1.36044 0.866741C0.988512 1.50452 0.791885 2.23396 0.791885 2.97613C0.791885 3.98698 1.15303 4.94608 1.79098 5.6955C1.597 5.62836 1.40877 5.54446 1.22911 5.44479C1.13266 5.39114 1.01494 5.39196 0.919122 5.44687C0.823237 5.50178 0.763119 5.60277 0.760596 5.71315C0.760154 5.73175 0.760154 5.75034 0.760154 5.76919C0.760154 7.27806 1.57278 8.63652 2.81518 9.37692C2.70845 9.36627 2.60178 9.35083 2.4958 9.33059C2.38654 9.30972 2.27419 9.34799 2.20051 9.43127C2.1267 9.51448 2.10229 9.63047 2.13629 9.73638C2.59616 11.1712 3.78015 12.2265 5.21149 12.5483C4.02434 13.2913 2.66675 13.6806 1.2416 13.6806C0.944228 13.6806 0.645155 13.6631 0.352454 13.6285C0.207049 13.6112 0.068016 13.697 0.0184965 13.8352C-0.0310231 13.9734 0.0214613 14.1276 0.145166 14.2068C1.976 15.3799 4.09298 16 6.26711 16C10.5412 16 13.2149 13.9859 14.7052 12.2962C16.5636 10.1893 17.6295 7.40061 17.6295 4.64519C17.6295 4.53007 17.6277 4.41383 17.6242 4.29796C18.3574 3.74592 18.9886 3.07782 19.5023 2.30992C19.5804 2.1933 19.5719 2.03916 19.4815 1.93181C19.3912 1.82439 19.2408 1.78965 19.1124 1.84651Z" fill="#262626"/>
</svg>
